<svg height="142" viewBox="0 0 425 142" width="425" xmlns="http://www.w3.org/2000/svg"><path d="m410.498224 54.2594486h-2.192847c-1.173735 1.2038288 1.330116 4.8424984 2.540751 1.8271014.311004-.7727804.128267-1.4407112-.347904-1.8271014zm-36.569188 0h-3.842351c-.273176 1.0106614.099189 2.2902309 1.118721 2.8081948 1.634178.8283814 3.14315-1.2849837 2.72363-2.8081948zm-36.964548 0h-5.931747c-.509731 3.0108003 5.088241 4.5894907 5.942631.6402373.034465-.1769077.034465-.3993059-.010884-.6402373zm-36.966151 0h-6.998337c.073544 1.9473357 2.616635 3.7814902 5.119082 2.6450276 1.213484-.5504014 1.919898-1.4930607 1.879255-2.6450276zm-36.998337 0h-7c.135036 1.3673024 1.111314 2.6851457 3.018248 2.9563726 2.162409.3063268 3.770073-1.2827434 3.981752-2.9563726zm-13.607589 0h-3.177517c-.647695.2961631-1.142991.7799577-1.485889 1.3244564-3.181326 5.0789227 4.960583 7.9117879 6.947484 3.4215126.918203-2.0841794-.203834-3.9917647-2.284078-4.745969zm-23.392411 0h-8c.803542 3.3836718 7.313913 4.558715 8 0zm-13.448396 0h-4.352532c-1.733417 1.6058382-1.672989 5.3192202.744126 6.6019904 3.753433 1.9897191 7.051068-4.2606973 3.608406-6.6019904zm-24.551604 0h-7c.239689 1.055406.853437 2.0137631 1.910246 2.5798813 2.287938 1.2252415 4.379767-.4528945 5.089754-2.5798813zm-12.195635 0h-5.720591c-.251138.2685407-.479272.5967572-.686317.9864046-2.126051 4.043908 4.863652 7.1979457 7.106645 3.0539931.78984-1.4550347.692068-3.0259104-.699737-4.0403977zm-25.804365 0h-7c1.153097 2.3690029 5.532594 2.939353 7 0zm-11.966612 0h-5.186402c-.424849.4908423-.727284 1.1624211-.829896 2.0375664-.147617 1.2670581.640874 2.9089066 3.153966 3.951471 1.476171-.4242552 2.662509-.4508901 3.423997-2.0908362.77409-1.6608734.356442-3.023056-.561665-3.8982012zm-26.033388.2177714h-5c1.144348 1.7687624 3.723478 2.3716588 5 0zm-11.639195-.2177714h-4.6907168c-1.100594 1.3704554-.9027132 3.7489774 1.0214418 4.6632275 3.1981302 1.5212975 5.476586-2.6360572 3.669275-4.6632275zm-26.360805-.2594486h-3c.9027149.634838 2.1244344.7466333 3 0zm-11.5773461.2594486h-3.8201841c-.6309884.6206312-.8689612 1.6543989-.2073248 3.1272401 2.0912759 1.6469885 3.9968609.7243785 4.4836234-.9392836.2848462-.9689257.041465-1.7025674-.4561145-2.1879565zm-38.0518409 0h-1.8827825c-.8362613 1.0896347-.7836963 3.4570292 1.6486293 2.9150058.5447645-.7711262.643523-1.0002289.8633402-1.9632052-.2086671-.4116398-.4189271-.7226979-.629187-.9518006zm57.0409536 106.6809174-.1440654-.097585c-.0860879-.067559-.1704188-.153884-.2477222-.257098-.2143413-1.326779 1.3528094-2.17314 1.980021-.863251-.0808172 1.05279-.9030442 1.60452-1.5882334 1.217934zm343.5882334-99.0147688c-.145789.2212706-.13283.386788-.00486.513975-.429267.8554633-1.065879 1.0418882-1.917934.4913252-.440606-1.2614165 1.112856-2.4879872 1.922794-1.0053002zm-26.186487-4.6111519c1.335486.2868274 1.746155 2.3776893.163298 2.8620044-2.153591.6614271-3.012118-3.4654391-.163298-2.8620044zm12.186487 9.3527533c2.433825-4.1986593 4.619684 2.2758176 1.33777 1.5016106-1.1544-.2730201-.762654-.7176529-1.33777-1.5016106zm-23.142182-2.4685647c-1.285737.2017923-2.266416-.3162706-2.857818-1.5115021.222711-4.8274932 6.520392-1.4998602 2.857818 1.5115021zm13.91894 4.0740837c2.398536.4092363.779012 3.3528019-.69142 2.910533-1.410794-.4220823-1.703389-3.3160991.69142-2.910533zm16.223242 8.6250406c-.145676.2214017-.132727.3870172-.004856.5142796-.428934.8559705-1.063432 1.0407625-1.918063.4933598-.440264-1.2639076 1.11361-2.4894621 1.922919-1.0076394zm-56.435976-15.8055308c-3.348776 1.0259931-4.848939-3.3481697-2.231906-4.640702 1.276423-.62801 3.055346.3249587 3.667882 1.8639484-.06052.867165-.759251 2.2162912-1.435976 2.7767536zm14.451457 3.1588934c1.445943.0941688 2.227581 1.0589548 1.916996 2.3204613-.888616 3.6050658-5.393816.5721199-3.450938-1.8123051.338192-.4139874.714345-.5596825 1.533942-.5081562zm15.984519 8.3005729c-.038859.8964146-.521358 2.0964536-1.071861 2.6603273-3.921522.2974279-.977952-6.8573654 1.071861-2.6603273zm12 8.0952413c1.103071-2.7938764 3.510129-.9107228 2.90344.6596358-.539717 1.40013-2.401149 1.16181-2.90344-.6596358zm-54.43186-21.3824972c4.378646.3919321 2.031426 5.6785816-.699918 4.8982644-2.607612-.7430749-2.585451-5.1944302.699918-4.8982644zm15.062087 8.0925821c2.774755.7919805.834764 4.7102875-1.41409 3.7086651-2.041832-.9117759-1.474192-4.5339221 1.41409-3.7086651zm12.369773 10.4175275c.160639-2.0654284 1.783843-3.4800782 3.655476-1.8313069 1.533545 2.4781173-2.480568 4.8986962-3.655476 1.8313069zm17.923645 5.5933325c1.028698.3098639 1.256689 1.0899283.950269 1.8123436-1.466442 3.4517399-5.097893-3.060807-.950269-1.8123436zm-71.186519-27.9264874c1.645704.5000462 2.764432 1.9814566 2.036121 3.8805087-1.42686 3.7231908-7.762819 1.642474-5.147201-2.8073758.551486-.9364162 1.391845-1.5937804 3.11108-1.0731329zm15.273799 7.9097636c4.114086 1.02218.98676 5.9068736-1.673877 4.6891018-2.14401-.9864632-1.796146-5.5531075 1.673877-4.6891018zm15.621567 8.7732035c1.158374 1.8012759-.630062 4.4074969-2.467415 4.0641286-4.06605-.7561605-1.927363-7.3083014 2.467415-4.0641286zm13.447086 7.0950911c1.558034.093896 2.301284 1.491502 1.727272 2.7789607-1.069513 2.4196279-4.456011.8179787-3.697059-1.4192743.228558-.6699119.718824-1.4391369 1.969787-1.3596864zm15.783283 8.5330403c.455765.8879939-.286528 2.269674-1.311997 2.4411819-3.032843-.7373235-1.085792-4.3582229 1.311997-2.4411819zm12.137139 8.1391225c.389007-3.8075427 5.120523-.2711987 1.860471 1.2892697-.949263-.0279809-1.329814-.6069684-1.860471-1.2892697zm-83.754879-37.569536c1.941071.3482127 3.026088 1.797285 2.696311 3.3370376-1.165325 5.3519555-8.46997 1.3565784-5.026962-2.720411.440842-.5205054 1.134569-.8342594 2.330651-.6166266zm14.649348 8.9857829c4.047194.8323025 1.484858 5.8128267-1.223802 4.7778478-2.613882-.9934467-2.126689-5.4689412 1.223802-4.7778478zm14.886045 6.9572262c1.892161.3133259 2.440766 2.0523774 2.143751 3.0757851-.945208 3.285287-6.204124 1.9485534-4.633438-1.6852855.401845-.9269998 1.153118-1.6129796 2.489687-1.3904996zm15.299434 11.9358947c-.61401-.2911043-1.226281-.5805913-1.840291-.8733129-.358317-1.0867893-.367014-1.7741188.335705-2.4727691 2.313409-2.3061928 5.541746 2.2107753 1.504586 3.346082zm14.405627 4.0498627c2.899321.4627328 1.111202 3.39548-.999063 2.8758926-2.134733-.5290632-2.112305-3.368632.999063-2.8758926zm16.514425 9.2285028c-.300362 1.0938112-.933655 1.1427872-1.40953 1.6942282-.778045-.277534-1.148974-.692929-1.59047-1.081114.130277-.5786491.189988-1.1282755.656815-1.8085062.685766-.3972547 2.26538.4063244 2.343185 1.195392zm-101.178427-45.0119214c3.552275 1.2279867 2.468302 7.2827203-1.147736 6.7455919-4.050633-.6019543-3.364341-8.3051164 1.147736-6.7455919zm15.190214 13.1915104c-2.580366 1.8183968-6.016272-1.0183721-4.734679-3.7468407 1.656107-3.5337337 8.17574-1.0568012 4.734679 3.7468407zm13.945189 2.8444791c1.715859.6294949 2.180684 2.1509327 2.010006 3.0409738-.927835 4.8609937-7.415417 2.3525231-5.670506-1.6222331.717211-1.6374474 1.986402-2.0311194 3.6605-1.4187407zm14.634852 7.7252557c4.58733.4219871 1.834574 6.9387498-1.73454 4.3872413-1.545187-1.105713-1.021789-4.641858 1.73454-4.3872413zm14.806842 8.0322916c3.127452.6417705 1.095418 4.8116328-1.184543 3.7650533-1.98018-.9099976-1.505391-4.3163176 1.184543-3.7650533zm15.465554 11.9180939c-1.208227-.0239964-2.191709-.0259961-2.64839-1.2058171-1.639736-4.2473555 6.733347-3.4774723 2.64839 1.2058171zm16.135776 5.1274499c-.068263 1.523767-1.343622 2.435881-2.670595 1.448652-1.348617-1.877882 1.824796-3.907782 2.670595-1.448652zm14 7.81345c-.264706 1.610873-1.820588 1.103747-2 .071263.267647-1.610873 1.822059-1.105404 2-.071263zm-115.83751-52.7169879c5.608727 1.3842707 1.865772 8.4092592-2.314622 6.5142149-2.888998-1.3120961-2.588496-7.7226758 2.314622-6.5142149zm14.32849 7.9309557c5.103262 1.1782406 1.364444 7.1759321-1.895349 5.6438757-2.744452-1.2950342-1.843469-6.5095219 1.895349-5.6438757zm14.931723 6.9868283c5.307375 1.1179267 1.30149 7.3578208-2.054589 5.5747278-2.062101-1.0992946-2.105296-6.4485738 2.054589-5.5747278zm15.571011 7.9937528c4.151396 1.020813.988918 5.9173127-1.670517 4.6906358-2.122053-.9782792-1.780396-5.5379106 1.670517-4.6906358zm14.367027 12.8718596c-4.998586-.7474534-.973127-7.3943191 2.110597-4.0617709 1.370133 1.4821453-.132951 3.6716367-2.110597 4.0617709zm14.779115 2.9995147c3.481885.2125686 1.467941 5.1470678-1.093796 3.7335778-1.745418-.962918-1.256701-3.8752902 1.093796-3.7335778zm15.610568 8.0875828c3.55013.938646-1.473184 4.704737-2.636435 1.816469-.563513-1.390709 1.064637-2.234011 2.636435-1.816469zm12.249576 9.321555c1.175547-2.840438 3.463313-.868494 2.917099.646126-.544235 1.520914-2.81221 1.002754-2.917099-.646126zm-113.029414-53.2637203c2.432754.5112393 3.512581 2.5433695 2.826235 4.4490641-1.884756 5.220504-8.979991 1.1305901-6.130398-3.1865413.424025-.6413396 1.466121-1.6454941 3.304163-1.2625228zm14.071782 7.9655012c5.48583.9087954 2.395625 7.1141378-1.647472 5.7215475-1.611115-.5543484-3.547516-2.0594883-1.532664-4.6565266.512801-.6635382 1.465694-1.3455548 3.180136-1.0650209zm15.285674 7.9631679c5.245857.8627185 1.788612 7.7809512-2.019341 5.4803687-2.504796-1.5147944-1.185025-6.0060591 2.019341-5.4803687zm14.561134 8.0068678c4.147984.8106474 1.375393 6.027934-1.434098 4.7164941-2.375069-1.1054283-1.804784-5.349603 1.434098-4.7164941zm15.082799 8.0163318c2.53989.5632594 2.878795 4.4125043-.043791 4.862011-3.61563.5504163-4.198244-5.8013882.043791-4.862011zm12.477512 11.1290806c-1.847994-2.053508 2.490775-4.5426092 4.182091-2.44201 1.247396 1.550643-.803476 4.61661-4.182091 2.44201zm17.491476 3.748637c3.39695-.02439 2.140404 4.534457-.521355 3.938941-1.252472-.27845-2.663795-3.916584.521355-3.938941zm16.038084 8.9872c.143741.525511-.481535 1.785988-.975647 1.974873-.722302.151481-1.954887-.699434-2.0034-1.340894.314435-.936942.210222-.721875.756441-1.533518.530047-.334756 1.917155.200105 2.222606.899539zm-131.74089-59.7477201c3.781839.9421309 3.637494 6.2280535-.173214 6.7895429-5.483307.8060644-5.412939-8.1794874.173214-6.7895429zm14.76527 7.935335c5.879529 1.157222 2.065266 9.0083586-2.541572 6.3417964-2.360576-1.3626243-2.09956-7.258771 2.541572-6.3417964zm15.337732 7.9535297c5.030424.9295846 1.951236 6.8765859-1.270015 5.7931851-3.21954-1.081729-2.601649-6.5070928 1.270015-5.7931851zm14.718109 7.9208892c5.170796.6729905 2.654342 7.0211194-.914414 5.8438301-3.171422-1.0458876-2.79223-5.7213068.914414-5.8438301zm14.18621 8.0313747c2.002028.2399878 3.210276 1.5293018 2.592275 3.1363928-1.134236 2.9741941-6.415 2.0076224-5.785897-.9235394.462575-2.1449948 1.733733-2.3882928 3.193622-2.2128534zm15.598723 6.9926808c4.109276.7170964 1.593802 6.0642217-1.333328 4.7251537-2.451722-1.1177195-1.857917-5.284928 1.333328-4.7251537zm14.418691 7.9933447c3.446009.66815 1.043001 4.564056-1.01015 3.845139-1.677014-.586269-1.972668-4.424858 1.01015-3.845139zm15.590193 11.867574c-.823246.233929-2.22431-.369458-2.842711-1.121372-.042515-1.080527.011595-1.607795.827111-2.614059 2.26296-.993269 4.630276 1.823158 2.0156 3.735431zm13.454922 6.610295c-1.605272-3.483119 3.641019-3.188252 2.538251-.512332-.404748.985962-1.269125 1.2624-2.538251.512332zm16.050284 5.601439c1.829815.281101-.775732 3.279514-1.358291.90577.33615-.669957.638838-1.449232 1.358291-.90577zm-144.226401-66.7783321c2.660406.7860879 3.446391 2.9796134 2.456204 4.8687313-1.93414 3.6869135-9.485761 1.4002751-7.141291-3.1174922 1.049906-2.0198341 2.542893-2.381542 4.685087-1.7512391zm13.844369 6.8025131c2.642719.555306 3.677529 2.686728 2.606788 4.8786289-2.206158 4.5249192-8.662943.579131-5.912431-3.6177361.499439-.7550695 1.421067-1.6585872 3.305643-1.2608928zm14.182414 7.9336874c4.899022.7579281 2.747067 8.2204583-1.069157 6.750537-2.820391-1.0909572-3.084696-7.3897997 1.069157-6.750537zm16.089205 8.2353908c3.28484 1.2725692 1.507464 6.2808012-1.68557 5.6366613-4.289205-.8588533-2.82948-7.3822981 1.68557-5.6366613zm14.706968 7.9769882c1.697479.6103668 2.191291 2.1132511 2.009743 3.0691085-.924083 4.8023201-7.39992 2.2975127-5.673393-1.6410805.773397-1.7562441 2.000665-2.024959 3.66365-1.428028zm15.629915 7.9436486c3.249107 1.345449.278697 6.362927-2.645852 4.220309-2.118446-1.54925-.400406-5.4809905 2.645852-4.220309zm15.948213 8.492927c2.389841 3.654297-5.205979 4.483641-4.484413 1.107952.328488-1.543682 2.242206-2.67593 4.484413-1.107952zm12.732145 7.278112c1.76664.293609 2.006213 1.592546 1.50466 2.750253-.991042 2.27825-4.431249 1.031345-3.657375-1.45689.34471-1.087094.994489-1.482907 2.152715-1.293363zm15.153322 10.77269c-1.564171.681721-2.740887-.951125-2.339081-1.958102.696781-1.751122 4.309841-.758929 2.339081 1.958102zm14.085635 5.154503c4.005259.519106-1.274783 3.689093-1.504076.783895.374441-.54005.875099-.812319 1.504076-.783895zm-159.882616-74.7701045c2.859281.5355098 4.028024 2.6257252 3.024869 4.7003937-2.220034 4.5881093-9.63876 1.1867587-7.137612-3.0092193.560304-.9380058 1.767555-2.1334018 4.112743-1.6911744zm12.160489 12.8315207c-1.276122-2.0947194-1.041092-4.5652357 1.081134-5.6212944 1.988172-.9899463 4.895569.4575675 5.120152 2.6097003.278554 2.7001698-2.961366 5.6908863-6.201286 3.0115941zm18.193685 2.1382113c5.732927 1.096413 2.334503 8.5421206-2.097226 6.5619767-2.854983-1.2742592-2.682765-7.47871 2.097226-6.5619767zm16.394372 9.0152433c1.828151 2.8513736-.641367 6.7510463-3.331408 5.6855932-4.164681-1.6486886-1.393838-9.7339338 3.331408-5.6855932zm10.640693 7.4413671c1.888892-1.5246286 5.067593.1763297 4.987828 2.6698811-1.179497 5.5517141-8.673967 1.6439629-4.987828-2.6698811zm17.688246 6.5714795c1.832914.5190728 2.847175 2.3189012 1.99592 4.1168489-1.769522 3.7181407-6.89516.6902167-5.437161-2.6028867.498075-1.1171348 1.477923-2.0668875 3.441241-1.5139622zm14.979492 7.9481186c2.091194.441572 2.429881 1.929062 2.295982 2.56631-.858532 4.197527-7.415668 1.967158-5.68482-1.269302.726601-1.362811 1.860809-1.619096 3.388838-1.297008zm13.806115 12.851379c-3.425535-.727716-2.82183-3.744302-1.098352-4.672889 3.252213-1.760263 5.647556 4.346915 1.098352 4.672889zm13.515448 4.950396c1.381733-3.970323 4.998925-1.021091 3.737193 1.170219-.845154 1.463212-3.673764 1.073724-3.737193-1.170219zm15 7.808469c.54912-3.234796 4.888942-1.412881 3.835969.396543-.629815 1.080347-3.16679 1.230222-3.835969-.396543zm18 7.618884c-.562985 1.543916-1.447675 2.038437-2.773776 1.123379-.488169-.574345-.153371-2.096845.688301-2.517383.755634-.157701 2.034975.728153 2.085475 1.394004zm-160.489581-75.077599c4.641174 1.3909789 1.995034 7.4237641-1.463629 6.732616-4.918665-.982889-3.484054-8.2156323 1.463629-6.732616zm14.15579 6.8328373c2.043147.3242617 3.64259 2.1491341 3.283066 3.8479048-.696248 3.2678368-3.384785 3.4209603-4.800081 2.8156719-3.654866-1.5672646-2.314983-7.272468 1.517015-6.6635767zm14.532009 8.0869752c2.358088.6093596 3.444073 2.7262786 2.41049 4.8506514-2.067166 4.2468823-8.091583.9634218-6.270164-3.0225726.571001-1.2578524 1.689511-2.3871243 3.859674-1.8280788zm14.795753 7.9037523c5.582096.8852131 2.368162 6.9046628-1.406452 5.7856197-1.685843-.4993938-3.784118-2.0643839-1.748563-4.7333852.515066-.6747663 1.438763-1.32949 3.155015-1.0522345zm13.037157 7.5531648c3.470016-2.2631307 6.501659 2.091469 4.119654 4.6769031-1.820394 1.9635987-7.445307-.5412596-4.119654-4.6769031zm17.668902 7.5163269c1.870367.5272576 2.840721 2.3218165 1.987603 4.1163755-1.751327 3.700218-6.92595.728745-5.414505-2.60051.50682-1.1091239 1.460942-2.071369 3.426902-1.5158655zm14.972864 7.9547405c1.69816.364648 2.480103 1.309653 2.302389 2.538845-.604229 4.243962-7.404769 1.967048-5.702659-1.258295.473905-.893646 1.259798-1.746205 3.40027-1.28055zm14.914895 12.772088c-2.427632.491228-4.216794-1.601668-3.378124-3.468713.954099-2.124892 3.987737-1.904686 4.790335.602273-.059518.897762-.743079 2.286753-1.412211 2.86644zm15.197888 3.831815c.912848 1.800866-1.246485 4.586182-3.526064 2.464521-.992447-1.833115 1.005995-4.577695 3.526064-2.464521zm13.217476 7.220744c3.702517-.002003 1.647158 5.616758-1.245113 3.526756-1.431777-1.033981-.73435-3.528759 1.245113-3.526756zm15.717663 8.03988c.599266.104069 1.655115.755864 1.143242 1.944431-1.414338 3.26993-4.974263-2.61996-1.143242-1.944431zm15.272042 8.330716c-.047988.351627.039418.657167-.006856 1.003673-.481594.602545-1.081443.827859-1.928089.285057-.305066-.984897.632413-2.384576 1.934945-1.28873zm-191.245501-90.1921814c5.887277.8940269 2.812463 8.4716255-1.579603 6.6673495-3.687574-1.5104728-2.344636-7.2639682 1.579603-6.6673495zm14.980417 6.9440009c2.59765.4618683 3.500282 2.6496654 3.224669 3.9941322-1.124844 5.4694928-9.484525 2.7487708-6.187507-2.593568.730374-1.1799145 1.581328-1.3781252 2.962838-1.4005642zm15.310868 8.0562675c5.839095 1.119615 1.942647 8.7255947-2.258675 6.5159743-3.288558-1.7303141-1.721427-7.2747216 2.258675-6.5159743zm15.806308 7.1378262c3.803639 1.2612716 2.077773 7.601164-1.352068 6.6733749-3.636945-.9818171-3.384379-8.2439095 1.352068-6.6733749zm14.602676 7.8653164c5.302274 1.2858886 1.208782 7.3607221-2.068057 5.5549696-2.436318-1.3409734-1.583863-6.4346068 2.068057-5.5549696zm11.606602 8.462244c3.04187-2.0626062 6.661659 1.8408018 4.045444 4.6648784-2.091934 2.258213-7.326094-.9920073-4.045444-4.6648784zm17.695533 7.5327934c4.829 1.317783.886072 7.561209-2.508964 5.420282-2.495739-1.566992-1.006986-6.381245 2.508964-5.420282zm14.896414 7.998983c2.377199.524333 2.745006 2.090544 2.022942 3.414103-1.597059 2.925405-6.73088.933279-5.47259-1.944613.685283-1.554333 1.827423-1.825833 3.449648-1.46949zm15.399822 6.929835c2.172904.497999 2.761771 3.569305.590658 4.689342-1.657421.859003-4.72347-.896029-3.245036-3.628548.359764-.662765 1.231431-1.390326 2.654378-1.060794zm14.04224 12.894319c-1.888208-.81443-2.411071-2.211736-1.907877-3.549157 1.619401-4.307694 6.482521 2.289585 1.907877 3.549157zm16.911763 4.479746c-.014706 2.532168-2.549655 3.419732-3.920991 1.379539-.654418-2.803256 2.943041-4.068336 3.920991-1.379539zm12.305845 9.067847c-1.601939-3.421464 3.665978-3.247711 2.532982-.519412-.414177.992613-1.263068 1.26803-2.532982.519412zm16.694155 6.185546c-.11842 1.018712-.754929 1.076062-1.500976 1.228492-1.523181-1.095682.867428-3.101414 1.500976-1.228492zm-190.814247-90.4538454c2.30253.5911784 3.399058 2.5129775 2.501735 4.6656177-1.817975 4.3615831-8.246394 1.4995288-6.336891-2.8245192.768108-1.7378769 2.078199-2.2915202 3.835156-1.8410985zm14.959661 7.9515455c6.481865 1.6121282.432495 9.8608822-3.454397 5.7223967-1.665015-1.7720242-.246875-6.6479125 3.454397-5.7223967zm15.280947 7.0651513c2.884776.900006 3.365873 4.084787 1.334774 5.986261-2.275266 2.1307031-6.044465-.3306911-5.744232-3.0419826.296617-2.6812286 2.38921-3.5755978 4.409458-2.9442784zm14.457208 7.8586381c2.124365.3514787 3.476401 1.8626674 3.031896 3.421399-1.465015 5.1380414-9.788374 1.4194986-5.882285-2.749005.390794-.4160013 1.34648-.9236928 2.850389-.672394zm15.294621 8.0119238c2.083535.4121939 3.41585 2.1337097 2.557587 3.9972418-1.703147 3.6820347-8.722174 1.5708398-6.191349-2.6013246.617415-1.0131657 1.812102-1.7596177 3.633762-1.3959172zm13.796834 7.8919147c5.60018.934075 2.348521 7.158801-1.126201 5.794453-2.713041-1.070323-2.524433-5.8016162 1.126201-5.794453zm15.730858 7.131973c1.800537.49851 2.853545 2.296572 1.983825 4.166937-1.622639 3.468643-7.006279 1.046492-5.390827-2.629547.630726-1.447963 1.863429-1.963598 3.407002-1.53739zm15.260699 7.957097c4.225196 1.036084.966797 5.890393-1.679355 4.682761-1.843659-.842455-2.04947-5.598251 1.679355-4.682761zm14.934278 7.955819c2.723.592026 2.776755 3.96768.278047 4.761952-3.775868 1.206116-4.572934-5.694118-.278047-4.761952zm13.307253 7.972008c4.412868-.869564 2.972381 6.291896-.037239 4.68012-1.477727-.785989-1.65546-3.374781.037239-4.68012zm16.677174 11.847589c-1.069703.324378-2.732471-.797588-2.885286-1.829872.422059-4.29896 6.430949-1.160128 2.885286 1.829872zm16.114714 5.535373c-.626728 2.344665-3.608807 1.629255-4 .069626.512033-2.452586 3.731695-1.637959 4-.069626zm11 7.220705c.300722-3.853599 5.170746-.238851 1.839833 1.275291-.935579-.027724-1.31357-.603524-1.839833-1.275291zm-202.923045-97.4424673c3.12891.6256529 3.564936 2.6166809 2.163289 4.597339-1.953697 2.7756866-8.050578.7812019-5.715125-3.2043107.64749-1.10267 1.714164-1.7577044 3.551836-1.3930283zm14.228624 6.9353738c5.233628.8933788 1.788794 7.0912991-1.465416 5.7503867-3.094224-1.2767379-2.071326-6.3532906 1.465416-5.7503867zm15.001988 7.9876199c5.24302.9082924 1.764055 7.0806286-1.45903 5.7502673-3.079046-1.2746482-2.119915-6.3681762 1.45903-5.7502673zm15.016941 7.9818172c5.162868.9004964 1.913368 7.6289243-1.85904 5.5412567-2.706219-1.494082-1.419322-6.1095475 1.85904-5.5412567zm15.81338 7.0458898c2.907483.5917208 3.261173 2.4462395 2.544285 3.9833336-1.734221 3.7021369-8.619763 1.535369-6.155344-2.5928759.673152-1.1282374 1.776056-1.7630866 3.611059-1.3904577zm14.773812 8.104214c1.463095.5311674 2.255045 1.8500525 2.058735 2.997302-.986582 5.6892726-8.719841 1.4995543-4.934587-2.7082313.540271-.5998218 1.89766-.6467957 2.875852-.2890707zm14.580584 6.8427056c5.046415 1.093146 1.443681 7.168661-1.798595 5.672091-2.98903-1.379446-1.793048-6.45291 1.798595-5.672091zm15.386928 8.085152c1.196304.369657 1.765629 1.036719 1.898952 1.401335 1.626901 4.403958-6.24456 4.42076-5.75631.740994.243225-1.838202 1.953002-2.73378 3.857358-2.142329zm14.803317 7.930336c2.205355.478084 2.413148 1.715476 2.289648 2.60661-.531245 3.868609-7.519768 2.321868-5.657469-1.290123.68415-1.334063 1.791728-1.657473 3.367821-1.316487zm14.280908 7.953393c2.052662.487443 2.303114 1.961106 1.837237 3.242059-1.145427 3.140036-5.972335 1.42832-4.536172-1.936544.462374-1.084465 1.331078-1.632366 2.698935-1.305515zm15.369103 7.943104c3.378336.656646.921063 4.762343-1.20714 3.793956-1.832205-.835732-1.425416-4.307998 1.20714-3.793956zm14.90881 6.988916c2.744564.510166 1.950135 3.876897-.15132 3.938406-2.578113.075982-3.04153-4.535408.15132-3.938406zm15.174024 10.764779c-1.561056.681868-2.737827-.949686-2.336003-1.958522.698409-1.751497 4.313233-.755806 2.336003 1.958522zm12.584626 6.608089c.902556-2.651207 3.355657-1.165943 2.956449.401253-.379922 1.50207-2.640169 1.661731-2.956449-.401253zm-202.792834-97.9900165c3.65209 1.4249133 1.136731 6.8805004-2.308019 5.469944-3.50295-1.4374754-1.826044-7.0868795 2.308019-5.469944zm14.753417 7.8924407c4.690757 1.6278076.296002 8.1443868-3.236866 4.9012521-1.765563-1.618893-.153224-6.0779805 3.236866-4.9012521zm14.800454 7.9127087c5.241648 1.467015.07528 8.5104336-3.256335 4.7992349-1.342801-1.501944.078782-5.6881762 3.256335-4.7992349zm14.992752 6.9762941c1.437444.4299717 2.862995 2.26357 1.967565 4.2037728-1.131605 2.4519046-4.847552 2.1089933-5.618946-.3713392-.569201-1.8407052 1.315109-4.5253632 3.651381-3.8324336zm12.173195 8.4910918c2.015962-1.6204323 5.479236.1856002 5.033909 2.6769256-.895793 5.0236971-8.574259 2.3824638-5.033909-2.6769256zm17.339872 6.4131842c5.21851.8555012 2.024848 7.621241-1.783403 5.555297-2.686993-1.461633-1.503546-6.0940807 1.783403-5.555297zm15.443364 8.074894c4.762962 1.2562 1.112753 7.140308-2.080943 5.601416-2.857016-1.381632-1.827958-6.631088 2.080943-5.601416zm13.524215 7.877919c2.021194.233156 3.699272 1.868558 2.17494 3.90909-1.768076 2.37125-7.481043.489463-4.621747-3.054183.309366-.378673 1.070595-1.015305 2.446807-.854907zm15.805228 8.068628c1.373485.345158 2.101697 1.609581 1.937476 2.568738-.859257 5.003923-7.280466.766632-4.098891-2.183687.281996-.258435.913998-.698989 2.161415-.385051zm15.586444 11.785192c-2.383967.53957-4.263739-1.61871-3.421587-3.464904 1.651423-3.635986 7.394865.387287 3.421587 3.464904zm13.715892 3.130616c3.362368.653448.912335 4.759888-1.212575 3.794643-1.831305-.829249-1.441489-4.310436 1.212575-3.794643zm15.098986 8.020353c2.424451.56839 1.804155 3.844019-.372557 3.904918-2.692995.077508-2.946408-4.687378.372557-3.904918zm15.580748 8.025006c2.131487.692327.334925 3.430758-1.177114 2.764434-1.34295-.594817-1.178739-3.529894 1.177114-2.764434zm15.978267 9.43196c-.613294 1.426627-1.267475 1.618175-2.081306 1.272991-2.66929-1.137311 1.244111-4.972244 2.081306-1.272991zm-206.181777-98.3002592c4.843921 1.281471.616967 8.4304272-2.9746591 4.9452871-2.174072-2.1056856.2276901-5.6695969 2.9746591-4.9452871zm14.662156 7.954118c5.04984.9909498 1.490086 7.2452748-1.822878 5.6723976-3.019434-1.4390153-1.61722-6.3528622 1.822878-5.6723976zm14.752633 6.9707259c5.131609.7224618 2.261646 7.4382776-1.634258 5.6348393-2.124345-.9868211-2.633501-6.2359854 1.634258-5.6348393zm14.984621 7.9804145c5.056789.7134438 2.431804 7.4658092-1.619309 5.6314981-2.367411-1.0701657-2.32385-6.1928372 1.619309-5.6314981zm14.283541 7.0353491c2.027705.4419669 3.088486 2.2379254 2.158753 4.2080488-1.639873 3.5001529-7.475057 1.1086626-5.098481-3.028222.460439-.8034059 1.342358-1.5319021 2.939728-1.1798268zm15.28053 8.0289007c4.509081 1.205729 1.278946 7.167078-2.044815 5.591218-3.1234-1.480523-1.788277-6.61749 2.044815-5.591218zm15.189677 8.090128c1.482799.515742 3.124404 2.886993 1.047008 5.141912-1.259364 1.364973-5.364298.412982-4.994983-2.671778.197583-1.679071 1.453254-3.340692 3.947975-2.470134zm-104.620119-53.0719147c2.8762916.4387689 3.1346863 2.0003189 2.0784743 3.6502901-1.6635339 2.5942419-6.761643.9075676-5.1018812-2.2972804.609208-1.1878458 1.3636451-1.6049265 3.0234069-1.3530097zm119.483611 60.8707817c4.214217.755063 1.439586 5.853824-1.263066 4.793735-2.486713-.971748-1.991427-5.37545 1.263066-4.793735zm15.707387 7.19825c2.777497 1.063909 1.23506 5.466534-1.688718 4.619606-3.08117-.894173-2.186816-6.10173 1.688718-4.619606zm15.567557 12.329305c-1.132952.976416-3.680722-.03703-4.096198-1.6449-.386192-5.041894 7.59755-3.083215 4.096198 1.6449zm12.097879 2.453324c4.414731-.871175 2.971356 6.29116-.037227 4.680082-1.477217-.785649-1.654889-3.373319.037227-4.680082zm16.048286 8.947007c1.584559.28853 1.727974 1.520107 1.741965 1.845429.122428 3.512705-5.278366 2.254018-3.713045-.954666.229114-.470555.860489-1.086343 1.97108-.890763zm14.505696 8.007237c1.503894.317166 1.732574 2.364614.160394 2.865486-2.040658.650033-2.971261-3.460565-.160394-2.865486zm16.238322 8.293217c-.54602 1.591888-1.404051 2.101051-2.690191 1.153163-1.360515-2.213751 2.169567-3.761364 2.690191-1.153163zm15 7.305237c-.14894.219718-.138785.385805-.003385.508639-.297879.809671-.886868.705867-1.408157.80275-1.574022-.897903.396044-3.110656 1.411542-1.311389zm-191.142427-89.3087393c4.720467 1.4743062.652599 7.4700811-2.742894 5.3118387-1.916269-1.2180766-1.582059-6.6619721 2.742894-5.3118387zm15.126224 6.9731453c3.97907 1.2444008 1.405639 6.9461249-2.010005 5.5794195-3.419544-1.3686467-2.169871-6.889826 2.010005-5.5794195zm15.013068 7.9894102c3.92885 1.2404642 1.44397 6.9504758-2.01921 5.5723978-3.42209-1.366449-2.181607-6.8981439 2.01921-5.5723978zm15.46677 8.1002508c.003321.001931.094643-.227863.101285-.225932 2.875803 1.593112 1.027784 7.090797-2.010738 5.661823-2.656631-1.251317-1.834736-7.179624 1.909453-5.435891zm-75.450217-38.1684071c3.3427469.7508734 2.0415317 5.3744947-.7681873 4.8722213-3.4681652-.6206544-2.6895264-5.6450797.7681873-4.8722213zm14.806831 7.9526276c4.339661.794003 1.312068 6.0806559-1.427103 4.7204651-2.445749-1.212781-1.483788-5.2514756 1.427103-4.7204651zm74.993815 37.9310745c4.304409.765971 1.363739 5.842405-1.250377 4.802754-2.541362-1.012951-1.886563-5.355121 1.250377-4.802754zm15.228996 7.018886c3.365255.775052 1.910663 5.29647-.761846 4.884353-3.631297-.563058-2.591316-5.659405.761846-4.884353zm-120.6100863-60.9568094c4.7543953.3665895 1.9329464 5.723756-.6908561 4.8914029-2.1088336-.6676535-2.7670508-5.1623604.6908561-4.8914029zm134.3319113 68.9077684c2.338272.403826 2.577295 2.043322 1.913919 3.520915-1.23149 2.74862-6.091631 1.27661-4.278172-2.342935.323894-.651331.990735-1.419903 2.364253-1.17798zm15.731981 8.165853c3.245112 1.254047.684731 6.356992-2.476017 4.268886-2.17191-1.437422-.659225-5.489413 2.476017-4.268886zm14.965975 7.876011c1.27239.322496 2.36082 2.395688.671113 3.491518-3.103473 2.007375-4.837466-4.551149-.671113-3.491518zm14.973703 6.958982c2.427049.568453 1.814598 3.849973-.373538 3.903496-2.641312.068288-2.984512-4.693423.373538-3.903496zm14.400164 7.946199c2.421987.520866.546796 3.526357-.976193 2.84535-1.420063-.63248-1.074295-3.286953.976193-2.84535zm16.145654 8.909019c.150982.735623-.698991 1.970742-1.340199 2.0216-.805238-.283351-1.183625-.693847-1.642163-1.084362.134206-.575784.195717-1.127954.676623-1.809086.553601-.32876 1.986999.192533 2.305739.871848zm15.017638 7.982629c-.406386 1.065258-1.038881 1.300006-1.903596.709579-.572912-1.575657 1.581237-2.48086 1.903596-.709579zm-208.8957771-94.3183326c-.9916344-4.6263579 5.4338888-4.3658445 4.8593438-.7941166-.3835883 2.3715698-3.2429126 3.3669105-4.8593438.7941166zm17.9872451 4.6132874c3.30432.7405469 1.840448 5.3002238-.781439 4.8582573-3.192938-.5381195-3.207082-5.7506247.781439-4.8582573zm14.934825 7.9683933c4.101718.9782094.940684 5.9291119-1.649161 4.7149012-2.462726-1.1560657-1.445771-5.4571091 1.649161-4.7149012zm13.999867 6.9873549c4.090778.972781.961638 5.951033-1.648523 4.706896-2.455824-1.174164-1.458569-5.447575 1.648523-4.706896zm15.069182 8.016647c3.246837.774632 1.908661 5.313205-.778255 4.839352-3.169363-.554509-3.252119-5.798821.778255-4.839352zm14.974412 6.953274c3.240693.730687 2.001189 5.311469-.777555 4.87916-3.551009-.550983-2.731139-5.670879.777555-4.87916zm-89.3388057-44.9691811c1.7403148.2449617 2.5928576 1.6373759 2.1560175 3.0537336-1.1590356 3.7738843-5.9607543 1.2616451-4.6678484-1.6686867.2518877-.5820144.9353311-1.6097486 2.5118309-1.3850469zm103.8194247 52.8818281c4.600417.393623 1.84493 6.133654-1.132242 4.772224-2.368913-1.085171-1.619581-5.008759 1.132242-4.772224zm16.065762 11.881858c-2.381023.546595-4.248314-1.621001-3.413954-3.458011 1.659612-3.645844 7.405401.38318 3.413954 3.458011zm-149.524561-79.6439598c1.198287.2622733 1.7419001 1.0314911 1.8237343 1.3641734 1.0131858 4.0432339-7.4644512 2.7793933-4.1365257-.8660301.282523-.306279.5747881-.873071 2.3127914-.4981433zm16.908426 8.8774789c-.4668959 5.0915634-6.1788405 2.7918905-4.7800354-.5181238.8773125-2.0804666 3.689984-2.0665172 4.7800354.5181238zm148.619987 74.6012959c2.229106 4.346333-6.152876 4.103585-4.368814.548246.740444-1.484557 2.213558-1.745469 4.368814-.548246zm12.911257 7.338937c.820374.219319 2.389713 1.795039.752286 3.38257-1.531143 1.481245-4.528663-.561794-2.721848-2.90513.259066-.334039.758929-.797983 1.969562-.47744zm16.468756 9.694462c-.438836 1.044945-.942685 1.890232-1.623513 2.175726-.785571-.039186-1.840223-.59338-2.335042-1.227811-.169755-.733328.200456-1.649521.77293-2.629157 1.31109-.442236 2.860561.216453 3.185625 1.681242zm13.054413 9.162936c-5.275072-.915614 1.186941-4.765604 1.922765-2.026642.160397.597276-.529312 1.788677-1.922765 2.026642zm16.833243 5.655257c.425289.680223-.43491 2.250526-1.27394 2.330126-3.458112-.940734-.556146-4.437732 1.27394-2.330126zm14.108101 7.7263c-.048876.348134.036657.653604-.010473 1.003445-.446866.544385-.994975.79354-1.759534.383971-.722665-.863509.403227-2.57346 1.770007-1.387416zm-205.5749487-96.9912016c2.9739642 1.0605234 1.3022328 5.2682834-1.3481705 4.7017808-3.2056498-.6866698-2.6444114-6.1266206 1.3481705-4.7017808zm14.5453774 7.8328495c1.6829775.3704155 2.5076183 1.7735044 1.752141 3.4291493-1.432925 3.1391775-5.7600747.7258646-4.4867577-2.1364367.3263097-.7370894 1.0534127-1.6631281 2.7346167-1.2927126zm14.7808233 6.9317538c4.247885.6125734 1.731634 6.1769343-1.341149 4.7195583-2.479758-1.173947-1.45793-5.1236739 1.341149-4.7195583zm14.821196 7.9655913c4.513177.353539 1.917279 6.161666-1.125557 4.765551-2.366043-1.087671-1.703843-4.987414 1.125557-4.765551zm15.17464 7.015484c4.249641.664906 1.742882 6.146722-1.334507 4.716445-2.360912-1.097825-1.644434-5.185897 1.334507-4.716445zm15.007699 7.990352c2.35233.371719 2.59158 2.025038 1.929714 3.50082-1.29579 2.872041-5.801367 1.105912-4.420006-2.113808.436587-1.015293 1.201487-1.595989 2.490292-1.387012zm15.216285 8.042484c1.475606.333828 2.437957 1.689884 1.865893 3.23643-1.259968 3.417489-5.884602.927928-4.613941-1.936954.374248-.844942 1.030072-1.693656 2.748048-1.299476zm-104.7537736-52.950245c3.6720855.6847211.8730719 4.7996474-1.1840735 3.7783405-1.422184-.7061702-1.6635341-4.3046683 1.1840735-3.7783405zm119.2139886 59.839831c2.113486.055261 2.676475 1.549299 2.558047 2.583482-.455493 3.929498-5.447693 2.498616-4.950295-.398674.327955-1.898632 1.242584-2.214413 2.392248-2.184808zm15.497656 8.072657c1.816671.297778 2.48711 1.685666 1.826502 2.883742-1.097081 1.985185-5.862894.90204-4.512187-1.781442.414846-.830643.74515-1.424457 2.685685-1.1023zm-166.9247-80.4323048c.3549172-4.3547985 4.9760105-2.2388969 3.8126709.3785946-.6470965 1.4490371-2.7532969 1.6316081-3.8126709-.3785946zm18.6425524 5.2878502c1.9264034 3.9596002-4.6131424 4.2693097-3.5179953.7058496.4337706-1.4116992 1.7004469-2.2003781 3.5179953-.7058496zm162.4449346 83.0449236c3.531594.19361 1.537367 4.910805-.891963 3.826954-1.861883-.835959-1.537368-3.960852.891963-3.826954zm16.912513 8.471111c-.016534 2.531054-2.549878 3.416923-3.920345 1.374001-.657677-2.802239 2.944851-4.065757 3.920345-1.374001zm12.585198 10.489999c-1.448482-.503309-1.787994-1.397033-1.481798-2.1371.988394-2.381698 4.991154.815328 1.481798 2.1371zm17.414802 5.31784c-.547558 1.629449-1.417424 2.152685-2.715814 1.182432-1.280077-2.078526 2.14628-3.798615 2.715814-1.182432zm14 7.628949c-.40319 1.066764-1.03852 1.301843-1.904463.710582-.569659-1.576103 1.580689-2.479023 1.904463-.710582zm-159.001175-72.68596c.110067 5.554368-7.556112 1.84269-4.105506-1.58911 1.232753-1.222825 3.296512-.323081 4.105506 1.58911zm15.001175 7.89514c-.226072 2.008389-1.674053 3.14709-2.892225 2.900187-5.379015-1.088952 1.012653-8.468399 2.892225-2.900187zm15 7.988298c-.28309 2.824853-2.410892 3.529141-3.957712 2.449617-3.422985-2.370721 2.562614-7.302666 3.957712-2.449617zm-80-37.9314658c.4542331-2.5089925 3.9813335-2.6370023 4.8296235-.8636396 1.1297592 2.3605011-3.6862761 4.4649825-4.8296235.8636396zm18.2015337 5.9803288c3.5829491.6616733 1.0431988 4.6202766-.9928262 3.8360712-1.5696729-.6028579-1.9645286-4.385015.9928262-3.8360712zm14.1412723 6.93294c2.534249.159395 3.55276 2.410141 1.732271 4.536058-3.5988732 2.220019-6.1511663-4.401628-1.732271-4.536058zm62.289726 30.815748c1.290687 2.36798-1.066568 4.910278-3.227719 3.887875-2.963578-1.39846-.930495-6.855195 3.227719-3.887875zm12.697475 7.163456c3.391078.66086.908147 4.776747-1.2059 3.792909-1.887425-.881147-1.33989-4.286485 1.2059-3.792909zm-119.2907265-60.9323339c1.8651627.1001695 2.1279811 1.3823387 1.8838144 2.3767484-.6578938 2.6717929-4.671385 1.8012292-3.7998453-1.003516.2814701-.899704.8579749-1.4351554 1.9160309-1.3732324zm135.7069105 69.5955269c.851123 1.256095-.596664 3.468574-2.000579 3.251367-2.756937-.420944-2.362086-5.916781 2.000579-3.251367zm13.477041 7.301738c2.444175.379325 2.340168 3.885816-.148582 3.94934-2.340168.058078-3.21866-4.477492.148582-3.94934zm-181.223232-89.3031831c1.2694989-3.0939575 4.7850344-.9331244 3.841048.6155001-.7242654 1.1766913-3.27547 1.1404854-3.841048-.6155001zm18.8190169 6.2597357c1.2811773 4.1122522-4.6938543 4.0413164-3.7087713.6769306.3966905-1.3518345 1.7499934-2.2780539 3.7087713-.6769306zm177.0521041 89.9879784c2.09775-.015879 2.579396 1.556129 1.733529 2.935606-2.17338 3.529079-5.867331-2.907818-1.733529-2.935606zm-210.871121-103.7669517c.0152209-.8903286.6506926-1.7531213 1.3717817-2.039495 3.3086386.2221232.917058 4.9766617-1.3717817 2.039495zm226.997574 112.9442267c.096645 2.390065-2.725067 2.283127-2.997574.386759.442031-2.160148 2.422458-1.919538 2.997574-.386759zm14.964224 7.458821c.269781 1.68195-.939163 2.683538-2.056828 2.212671-1.817473-.76815-.778917-4.335559 2.056828-2.212671zm15.038202 8.006061c-.1524.217793-.135467.382003-.003387.508185-.299721.807219-.885616.701779-1.408858.802034-1.573111-.898831.397935-3.111339 1.412245-1.310219zm-175.8056037-81.427763c1.8075422.401538 1.9041592.983504 1.7592337 2.096138-.3965321 3.134478-7.2583487 1.853799-4.1464776-1.595542.3260822-.357316.9138353-.827841 2.3872439-.500596zm12.1999557 10.093343c-1.93158-2.98469 3.821811-4.549791 4.556245-1.757989.415457 1.590481-1.848882 3.693639-4.556245 1.757989zm17.079555 8.761573c-.688707-.304162-1.379371-.606643-2.071992-.905764-2.330257-4.150718 6.32163-3.959147 4.284856-.362978-.581097 1.018355-1.138715.710832-2.212864 1.268742zm11.914622 7.212236c-1.910262-2.935199 3.804768-4.59203 4.562965-1.745981.411592 1.562636-1.85512 3.680353-4.562965 1.745981zm17.643089 8.758531c-2.22682-.648059-2.47312-2.853453-1.462616-4.123648 2.550721-3.194431 5.454022 3.41178 1.462616 4.123648zm-92.031618-47.4032313c.3516469-4.3557833 4.9768799-2.2384153 3.8124981.3785132-.6440879 1.4506468-2.7539692 1.6293358-3.8124981-.3785132zm16.9744478 4.4866395c3.8833787.2119749 1.3882172 4.8862938-.8946288 3.8336658-1.2648201-.587007-1.9090254-3.9840412.8946288-3.8336658zm91.7187202 46.7241168c1.677444 3.583454-4.089179 4.391991-3.671449 1.11174.203969-1.615303 1.768822-2.780236 3.671449-1.11174zm13.313046 7.17879c1.433667.081678 2.45076 1.33118 1.785322 2.676262-2.057629 4.155158-6.308137-2.924772-1.785322-2.676262zm16.993786 8.530294c-.199198 2.366719-1.993862 2.961294-3.237912 2.011518-2.53508-1.93237 1.960036-5.681284 3.237912-2.011518zm-151.5469418-76.3638742c3.0653014.479539.9987146 3.6189206-1.2346636 2.8148937-1.9913272-.71771-1.5153614-3.2432818 1.2346636-2.8148937zm164.3303048 82.8600262c1.360994.284764 1.7995 2.37251.16241 2.87124-2.002512.61358-3.058176-3.47066-.16241-2.87124zm-178.3595794-88.0500074c-1.3610892.5864134-2.6850271-.6554033-2.3793731-1.7471673.5724681-2.0489976 4.3804783-1.0917639 2.3793731 1.7471673zm193.0599364 95.9780734c1.163016.045135 1.836057.880134 1.364031 1.949489-1.437617 3.230632-4.772313-2.09531-1.364031-1.949489zm-222.48372-113.0244324c-.38011064 1.1699491-.97848794 1.6165687-1.93915819.8349845-.41871562-1.4482773 1.44323259-2.3188618 1.93915819-.8349845zm13.1876441 6.2169835c.9419609.3656207 1.6866322.7970531 1.8123559 1.413124-.2688554.5009004-.5415791.9981445-.8143029 1.4990448-2.152777.5977899-3.123751-2.2321143-.998053-2.9121688zm225.6060599 115.1269119c1.066794 1.62045-2.328087 2.428495-2.793704.664167.618858-.935937 1.469543-1.341413 2.793704-.664167zm14.205249 8.80499c-.298149.845139-.887671.736556-1.409431.83971-.579358-.334798-.506515-.886763-.589522-1.389865.579358-1.093072 2.044692-.58635 1.998953.550155zm-177.998953-80.494981c.3522093-4.386156 4.9506966-2.217327 3.8221894.380224-.6037874 1.385101-2.7997043 1.676089-3.8221894-.380224zm17.1987103 5.50177c2.6583879.371574 2.1736888 3.897882-.1454097 3.963454-2.6527953.078322-2.8709098-4.386028.1454097-3.963454zm14.7790147 7.962087c3.907411.210882 1.337705 4.857548-.90213 3.843135-1.210131-.549019-1.957351-3.995842.90213-3.843135zm14.996854 6.987326c3.911617.210876 1.341542 4.857407-.896792 3.843023-1.21395-.550821-1.957631-3.997544.896792-3.843023zm14.999093 7.986601c3.958054.229508 1.26716 4.832403-.895751 3.8488-1.059608-.479051-2.111934-4.023662.895751-3.8488zm14.286066 8.014239c4.597427.709524-1.26276 6.755331-2.196256 2.383033-.31175-1.474769.541183-2.637495 2.196256-2.383033zm12.792437 9.830986c-.534891-2.983532 3.20194-3.992609 3.947825-1.364638-.018508 2.500843-2.570806 3.380807-3.947825 1.364638zm-115.052175-61.5440489c-.1495945.9697005-.5275173 1.185896-1.1337685 1.769306-4.2264371-.4848503-.1291236-5.161668 1.1337685-1.769306zm12.9384917 5.7624309c3.6018012-.052426 1.8682143 4.667956-.530225 3.909791-2.1229708-.669443-1.7646547-3.879545.530225-3.909791zm119.8812513 60.93865c2.456379.531469.550052 3.536126-.953949 2.839886-1.414422-.652625-1.095392-3.285738.953949-2.839886zm13.180257 9.527056c.747933-2.725049 3.32885-1.45527 2.965075.129845-.362206 1.57837-2.410005 1.856608-2.965075-.129845zm-162.2739665-85.387315c1.3713189.2398088 1.3913381.910524 1.1677898 1.7742104-.5471929 2.1114414-3.5767733 1.1147361-2.7526473-1.0229344.2669233-.6894503.6673084-.9161445 1.5848575-.751276zm179.1779555 90.782316c2.641821 1.167993-.097777 4.659058-1.874364 2.046295-.215847-1.236265.782215-2.013082 1.874364-2.046295zm-192.903989-96.8557396c-.2249926.6077762-.088699 1.0981176-.6598342 1.8130271-3.8724694 1.4730845-2.4338145-5.1836092.6598342-1.8130271zm206.013481 106.4568596c1.419219-1.362307 3.471334-.184449 2.883189.788628-.626502 1.045695-3.100547.652107-2.883189-.788628zm-222.013481-114.4394946c-.29378531.977062-.87974173.9575915-1.43987086 1.0283931-.55044391-.3274573-.4826473-.8690895-.56012914-1.3611606.43744956-1.0478635 1.84826473-.7027058 2 .3327675zm63.0176402 43.9498276c-.9345847-.022104-1.956689-.757865-2.0176402-1.509414 1.0955583-3.543019 4.7244976.195781 2.0176402 1.509414zm14.789988 4.039663c2.4803178.516938.5555041 3.542637-.9491805 2.843156-1.3910941-.649402-1.1032279-3.271245.9491805-2.843156zm17.08429 8.108757c-.2102682.383146-.1336284.676827.1080818.91605-.7408516 1.690122-1.6644596 2.137451-2.6902541 1.806817-2.9378596-.943279-.430362-6.184798 2.5821723-2.722867zm14.1080818 8.331471c-.042892 3.828779-4.399208 2.678339-3.97029.19676.343135-1.967595 2.793563-2.499649 3.97029-.19676zm14.973833 7.626525c.240565 1.926136-1.220723 3.194519-2.610437 2.746855-3.055782-.979758-.441369-6.175024 2.610437-2.746855zm12.989447 5.849454c4.385132.228344.701539 6.337057-1.842819 2.958371-.443831-1.151825.376336-3.188736 1.842819-2.958371zm16.010261 10.96191c-1.212025-.016627-2.466442-.024941-2.838335-.997665-1.242855-3.260703 6.590024-2.243084 2.838335.997665zm14.461172 7.848633c-.88535.454728-2.262739-.286932-2.434713-1.305455.74363-3.028722 4.37898-1.097387 2.434713 1.305455zm-134.7614343-68.737179c-.8204954-.273504-1.2079515-.673241-1.6732787-1.048432.0113958-.8485643.6495588-1.6760894 1.3674922-1.9460869 2.0721306.1735698 2.1689946 2.4930949.3057865 2.9945189zm16.1645233 5.556853c1.0877062 3.482921-3.6877133 2.85968-2.7031954.393816.370463-.923118 1.2906997-1.409065 2.7031954-.393816zm133.645513 68.310662c1.147303.04765 1.844329.903583 1.361634 1.985411-1.403059 3.153714-4.783728-2.124831-1.361634-1.985411zm-164.2824886-80.8547255c-.8361852-.2336407-.8815823-.6308298-1.2008264-1.5144164.8405785-3.6639105 3.2363735.5033895 1.2008264 1.5144164zm176.7991736 89.3256055c1.010271-2.906784 3.523147-.914694 2.902805.61112-.545506 1.343271-2.554232 1.208349-2.902805-.61112zm16.006992 8.141991c.055096-.45438-.177728-.835036.328796-1.41279 2.228705-1.235251 2.315792 2.977542-.328796 1.41279zm-208.93639312-105.9474815c-.51153161-1.7885763 1.92425147-2.0844454 1.92940112-.3168662-.51153161.8761542-1.39212127 1.1338466-1.92940112.3168662zm93.54625312 57.3903565c-1.0605509-.336341-1.4232852-.892172-1.616852-1.500113 1.309422-3.77081 4.983938.685315 1.616852 1.500113zm15.005122 7.985384c-1.066703-.336154-1.423895-.891676-1.621974-1.500856 1.310244-3.77029 4.979575.688089 1.621974 1.500856zm15.812739 6.846444c-.952229.473474-2.173567-.319553-2.434713-1.304981.74363-3.021533 4.37898-1.09585 2.434713 1.304981zm-76.434713-38.759235c.1464879-.591295.2078544-1.15834.7205619-1.861552 3.7591952-1.251604 2.4071519 5.198542-.7205619 1.861552zm18 7.125204c-.1887027 3.114293-3.6712791 1.718045-2.8844561-.241349.4245812-1.060147 2.109427-1.480273 2.8844561.241349zm15 7.284568c-.5365079 1.507251-1.384127 1.971815-2.6365079 1.082261-.2253969-.368209-.0571429-.870627-.3634921-1.214748.4396825-2.178288 2.831746-1.350676 3 .132487zm59 30.951324c-.50613 1.304525-1.303121 1.669995-1.95386 1.475416-2.811652-.83246.808494-5.172416 1.95386-1.475416zm13.691989 6.565028c1.323124.229289 1.526952.980846 1.121054 1.938034-1.396924 3.286469-4.883083-2.582225-1.121054-1.938034zm-120.691989-59.134377c.1838529-2.817074 3.4132691-1.963805 2.9556353.030015-.3117506 1.346364-2.1642685 1.747272-2.9556353-.030015zm135.185071 66.071712c.950032.368827 1.691096.796082 1.814929 1.415054-.26895.498464-.539835.996928-.812655 1.497218-2.153536.597062-3.124852-2.229395-1.002274-2.912272zm15.676779 10.979902c-1.215169-.25223-1.003835-.543265-1.86185-1.284865.390967-3.817946 5.118503-.269477 1.86185 1.284865zm-163.86185-84.959762c-.2285132.741099-.6363459.927168-1.0441785 1.113238-2.4406483-.817435.4982858-3.309498 1.0441785-1.113238zm180 90.636693c-.150617.219822-.138771.385987-.005077.510611-.297849.810053-.886778.702739-1.408014.799668-1.570478-.896598.396004-3.112129 1.413091-1.310279zm-119-48.553426c.0133266-.892145.6510981-1.756754 1.368829-2.041286 3.3126043.222119.9214371 4.974716-1.368829 2.041286zm16.860287 5.09763c.489418.148801 1.542974.729309.976968 1.848071-1.724171 3.383844-4.862423-3.049501-.976968-1.848071zm15.000618 7.98441c.489559.150545 1.54342.728855.975382 1.848759-1.722801 3.383576-4.86196-3.04577-.975382-1.848759zm16.034218 7.590171c.341486.527584-.200764 1.905765-.908127 2.210831-.681095.188423-1.549819-.556297-1.986996-.967239.01501-.873924.641693-1.717342 1.349056-1.997285.945653.312244.733631.208163 1.546067.753693zm-89.895123-44.880785c-.1616679 1.048634-.851352 1.629415-1.9370482.837294-.425676-1.466474 1.4283135-2.358619 1.9370482-.837294zm14.7876833 6.687603c1.0183411 2.043825-1.9101549 3.701213-2.7876833 1.358972.2632585-1.341797 1.2040506-2.561222 2.7876833-1.358972zm15.2123167 8.844681c-.6297177 1.569628-1.2575444 1.874004-2.138771 1.499999-2.3297666-.986737.642955-4.872014 2.138771-1.499999zm72 38.057436c.437858-1.851357 2.185548-1.914044 2.99203-.459705.183377 2.528378-2.857304 2.576438-2.99203.459705zm15.01372 7.126162c1.414234-1.36321 3.469558-.184571 2.883844.787696-.628312 1.046387-3.103221.652539-2.883844-.787696zm-132.0854652-67.102183c-.5246824.804687-1.4027225.775811-1.9006355.09433-.331942-2.011717 2.4485183-1.919313 1.9006355-.09433zm148.9006392 76.040473c-.419598.545484-.990762.556322-1.697538.090312-.840792-2.024797 2.66756-2.36437 1.697538-.090312zm-99.828894-43.374347c-.2213138 1.048444-.3213598 1.292368-.9095089 1.876501-2.4966018-.246064-.0576022-5.139516.9095089-1.876501zm13.2042447 9.861884c-.9969205-.165592-1.0542655-1.062725-1.2042447-2.112874 1.0954362-2.527902 3.1289776 1.079494 1.2042447 2.112874zm14.9997813 7.985383c-.997958-.165462-1.055363-1.066077-1.204026-2.113305 1.095104-2.525912 3.12929 1.07655 1.204026 2.113305zm15.795974 5.136868c-.217451 1.038048-.312124 1.274352-.887557 1.850342-2.446699-.386103-.26035-5.118506.887557-1.850342zm15 7.66062c-.163572 1.024434-.874422 1.591108-1.996496.816074.050448-.479858-.149813-.874478.285869-1.482193.686391-.378835 1.31622-.017363 1.710627.666119zm-90.0317842-45.64088c.6614001-.4386.9453612.743234 1.0317842 1.090076-1.1093885 2.325129-3.252325-1.095582-1.0317842-1.090076zm16.0317842 7.808822c-.3579287 1.158703-.9927169 1.384381-1.9043644.673665-.5705445-1.493851 1.5846759-2.349405 1.9043644-.673665zm88.996085 45.402184c-.053626.348132.037539.651894-.010725 1.001732-.332481.580219-.879466.508545-1.378188.590458-1.376401-.675785-.196629-2.899389 1.388913-1.59219zm-55.996085-18.714441c-.0983017 1.268936-1.2673903 1.805793-1.980078.863477-.2141573-1.327126 1.3551598-2.173709 1.980078-.863477zm15 6.986634c-.096476 1.268693-1.268217 1.807324-1.980384.863312-.212246-1.324996 1.354169-2.173294 1.980384-.863312z" fill="#837fff" fill-opacity=".1" fill-rule="evenodd" transform="translate(0 -54)"/></svg>