<?xml version="1.0" encoding="UTF-8"?>
<svg width="24px" height="24px" viewBox="0 0 24 24" version="1.1" xmlns="http://www.w3.org/2000/svg" xmlns:xlink="http://www.w3.org/1999/xlink">
    <!-- Generator: Sketch 55.1 (78136) - https://sketchapp.com -->
    <title>ic / soc / ok</title>
    <desc>Created with Sketch.</desc>
    <g id="ic-/-soc-/-ok" stroke="none" stroke-width="1" fill="none" fill-rule="evenodd">
        <g>
            <rect id="e" x="0" y="0" width="24" height="24"></rect>
            <path d="M16.8501594,12.5386039 C16.6126039,12.0758851 15.9546003,11.6910037 15.0802231,12.3589705 C13.8983676,13.261885 11.9999738,13.261885 11.9999738,13.261885 C11.9999738,13.261885 10.1016938,13.261885 8.91983835,12.3589705 C8.04534727,11.6910037 7.38745758,12.0758851 7.14990212,12.5386039 C6.73571745,13.3451324 7.20365388,13.7349821 8.25967104,14.392129 C9.16149352,14.9534419 10.400745,15.1632166 11.2010996,15.2416061 L10.5330745,15.8892578 C9.59207703,16.8014465 8.68387722,17.6820586 8.05366057,18.293055 C7.67682883,18.6582838 7.67682883,19.2506213 8.05366057,19.6158501 L8.16731367,19.726037 C8.54414541,20.0913762 9.15500231,20.0912658 9.53172018,19.726037 L12.0111341,17.3222398 C12.9521316,18.2344285 13.8604453,19.1150406 14.490662,19.726037 C14.8672659,20.0912658 15.4782367,20.0912658 15.8549546,19.726037 L15.9687216,19.6157397 C16.3454394,19.2505109 16.3454394,18.6582838 15.9687216,18.293055 L12.8191188,15.2395083 C13.6200428,15.1596835 14.8459702,14.9488048 15.7405043,14.392129 C16.7962937,13.7349821 17.2642301,13.3451324 16.8501594,12.5386039 L16.8501594,12.5386039 Z M11.999875,5.77777778 C13.2550826,5.77777778 14.2727273,6.77271324 14.2727273,8.00006113 C14.2727273,9.22728676 13.2550826,10.2222222 11.999875,10.2222222 C10.7447924,10.2222222 9.72727273,9.22728676 9.72727273,8.00006113 C9.72727273,6.77271324 10.7447924,5.77777778 11.999875,5.77777778 L11.999875,5.77777778 Z M11.9999446,12 C14.2592315,12 16.0909091,10.2091944 16.0909091,8.00005413 C16.0909091,5.79091389 14.2592315,4 11.9999446,4 C9.74065781,4 7.90909091,5.79091389 7.90909091,8.00005413 C7.90909091,10.2091944 9.74065781,12 11.9999446,12 L11.9999446,12 Z" id="Fill-1" fill="#837FFF"></path>
        </g>
    </g>
</svg>