<?xml version="1.0" encoding="UTF-8"?>
<svg width="24px" height="24px" viewBox="0 0 24 24" version="1.1" xmlns="http://www.w3.org/2000/svg" xmlns:xlink="http://www.w3.org/1999/xlink">
    <!-- Generator: Sketch 55.1 (78136) - https://sketchapp.com -->
    <title>ic / soc / vk</title>
    <desc>Created with Sketch.</desc>
    <g id="ic-/-soc-/-vk" stroke="none" stroke-width="1" fill="none" fill-rule="evenodd">
        <g>
            <rect id="e" x="0" y="0" width="24" height="24"></rect>
            <path d="M19.9400242,16.0308207 C19.9193608,15.9849637 19.9001982,15.9473039 19.8821899,15.9166534 C19.5867848,15.3692204 19.0217171,14.6970469 18.1884876,13.9002516 L18.1710565,13.8817187 L18.1619369,13.8728087 L18.1530482,13.8636611 L18.1443904,13.8636611 C17.766101,13.4922905 17.5264523,13.2428094 17.4260214,13.1154552 C17.2425909,12.8721517 17.2012642,12.6254029 17.301695,12.3760406 C17.3728047,12.1873853 17.6385423,11.7892846 18.0998314,11.1806694 C18.3421352,10.8584823 18.5344545,10.5997347 18.6758657,10.4051394 C19.6988748,9.00566895 20.1420402,8.11145721 20.0060546,7.7221478 L19.9532995,7.63126538 C19.9177447,7.57661713 19.8264335,7.52624569 19.6786732,7.48086388 C19.5309129,7.43500687 19.3417105,7.42728484 19.1111813,7.45793538 L16.5571217,7.47599306 C16.5161413,7.46126179 16.4566909,7.462331 16.3801557,7.48086388 C16.3031587,7.49892157 16.2643716,7.50818801 16.2643716,7.50818801 L16.2202744,7.53135412 L16.1851814,7.55855944 C16.1553984,7.57661713 16.1230759,7.60833687 16.0874056,7.65419389 C16.0523125,7.6996945 16.022645,7.75315475 15.9992112,7.81398063 C15.7207754,8.55006884 15.4051687,9.23424121 15.0500822,9.86697294 C14.8312123,10.2442835 14.6302352,10.5713414 14.4470355,10.8481467 C14.263605,11.1247144 14.1100728,11.3289325 13.9863236,11.4594943 C13.8618817,11.5902937 13.7497917,11.6953134 13.6492454,11.7739594 C13.5483529,11.8533181 13.4719331,11.8865823 13.4187163,11.8745834 C13.3654995,11.8619906 13.3150532,11.8499917 13.2678392,11.8378741 C13.1848395,11.7833446 13.1184628,11.7088567 13.0684783,11.6142914 C13.018032,11.5202014 12.9840933,11.4015197 12.9665467,11.258365 C12.9490002,11.1155667 12.9383799,10.9924894 12.9350322,10.8891329 C12.9324926,10.7857764 12.9339933,10.6391765 12.9398806,10.4511152 C12.9456525,10.2623412 12.9490002,10.134393 12.9490002,10.0677459 C12.9490002,9.8363224 12.953156,9.58529684 12.9616984,9.31466918 C12.9707025,9.04392273 12.978206,8.82960653 12.9840933,8.671483 C12.9898652,8.51347827 12.992982,8.34608829 12.992982,8.16943187 C12.992982,7.99336946 12.9824771,7.85496682 12.9616984,7.75434275 C12.9414968,7.65419389 12.9102131,7.55689624 12.8686556,7.462331 C12.8272134,7.36824096 12.7666086,7.29494102 12.6869566,7.24361918 C12.6071891,7.19170334 12.5084899,7.15059835 12.3903971,7.11994781 C12.0769836,7.04724187 11.6778,7.00780009 11.1931924,7.00126606 C10.0937636,6.98926721 9.38740012,7.06256715 9.07387127,7.22069068 C8.94954484,7.28733779 8.83745481,7.37869541 8.73702399,7.49405075 C8.63082128,7.62805777 8.61581438,7.70123891 8.69246503,7.71335656 C9.04732059,7.76800481 9.29816676,7.89880422 9.44650424,8.10551718 L9.49960559,8.21540769 C9.54104773,8.29417245 9.58248988,8.4342383 9.62347027,8.63477363 C9.66479697,8.83554656 9.69146309,9.05758479 9.7031223,9.30088832 C9.73290523,9.74508358 9.73290523,10.1251265 9.7031223,10.4418488 C9.67391655,10.7578583 9.64574975,11.0044882 9.61908363,11.1806694 C9.59264839,11.3573258 9.55270694,11.5000053 9.49960559,11.6098958 C9.44650424,11.7193111 9.41083398,11.7859582 9.39271026,11.8106687 C9.37516372,11.8346665 9.3603877,11.8499917 9.34872848,11.8559318 C9.27173152,11.8865823 9.19196406,11.9019076 9.10896433,11.9019076 C9.02665724,11.9019076 8.92611098,11.859377 8.80767187,11.7739594 C8.68969452,11.6886606 8.56698422,11.571642 8.44000272,11.4223097 C8.31302123,11.2735715 8.16953214,11.0651953 8.00953545,10.7973001 C7.85011596,10.5297612 7.68492457,10.2137517 7.51326868,9.84832126 L7.37139572,9.58375243 C7.28250867,9.41363004 7.1614145,9.16581209 7.00788233,8.83994218 C6.85423472,8.51454747 6.71824908,8.20008242 6.60027172,7.89547781 C6.55294226,7.76800481 6.48183262,7.67070716 6.38705825,7.60346605 L6.34307648,7.57614193 C6.31317811,7.55202541 6.26607951,7.52624569 6.20108808,7.49844637 C6.13586576,7.47112224 6.06833469,7.45140135 5.99710962,7.43928369 L3.56760729,7.45734137 C3.31941618,7.45734137 3.1508771,7.51531604 3.06222093,7.63067138 L3.02655068,7.68543843 C3.00900414,7.71608897 3,7.7646784 3,7.83144431 C3,7.89880422 3.01754653,7.9807766 3.05321679,8.07819305 C3.40807235,8.93569543 3.79340347,9.76314126 4.21047997,10.5598178 C4.62721015,11.3573258 4.98899198,11.99873 5.29617176,12.4854559 C5.60392873,12.9721817 5.9168804,13.4315835 6.23629658,13.8630671 C6.55571276,14.2951447 6.76707923,14.5718311 6.87016512,14.6938393 C6.9738282,14.8157287 7.05521179,14.9064923 7.11408503,14.9671994 L7.33572546,15.1865052 C7.47759842,15.3325111 7.68584808,15.5075043 7.96116705,15.7108908 C8.23590883,15.9148714 8.54043354,16.1156443 8.874164,16.3136848 C9.20847165,16.5110125 9.59680415,16.6723437 10.0405468,16.7970843 C10.4838276,16.9218248 10.9153338,16.9720775 11.3350654,16.9474858 L12.3548422,16.9474858 C12.5614758,16.9294281 12.7183556,16.862187 12.8245583,16.7468316 L12.8597668,16.7014498 C12.883547,16.6647404 12.9058265,16.6083102 12.9261435,16.5323966 C12.9468069,16.4564831 12.9574272,16.3727287 12.9574272,16.2814899 C12.9515398,16.0198911 12.9707025,15.7843096 13.0147997,15.5742702 C13.0588969,15.3648248 13.1093432,15.2068201 13.1657923,15.1001372 C13.2221259,14.9934543 13.2852703,14.9038787 13.3564954,14.8310539 C13.4271433,14.757754 13.477705,14.7140354 13.5073725,14.6987101 C13.5366937,14.6833849 13.5600121,14.6729304 13.5781358,14.6663964 C13.7200088,14.617807 13.8868163,14.665446 14.0791355,14.8081254 C14.2711085,14.9513989 14.4513067,15.1274613 14.6201921,15.3373819 C14.7886158,15.5474213 14.991209,15.7832404 15.2270482,16.0446016 C15.4640419,16.3059628 15.6707909,16.5006769 15.8476414,16.6286251 L16.0251847,16.7380404 C16.1437392,16.8113403 16.2972714,16.8779874 16.4864738,16.9388133 C16.6756762,16.9999956 16.8408676,17.0153209 16.982856,16.9846703 L19.2530543,16.947961 C19.4772344,16.947961 19.6520071,16.909826 19.7758717,16.8337936 C19.9001982,16.7577613 19.9736166,16.6740069 19.9973967,16.5832433 C20.0214078,16.4918856 20.0224467,16.3885292 20.0022451,16.2725798 C19.9810046,16.1572245 19.9603412,16.0763213 19.9400242,16.0308207" id="Fill-1" fill="#837FFF"></path>
        </g>
    </g>
</svg>