<?xml version="1.0" encoding="UTF-8"?>
<svg width="24px" height="24px" viewBox="0 0 24 24" version="1.1" xmlns="http://www.w3.org/2000/svg" xmlns:xlink="http://www.w3.org/1999/xlink">
    <!-- Generator: Sketch 55.1 (78136) - https://sketchapp.com -->
    <title>ic / soc / mail</title>
    <desc>Created with Sketch.</desc>
    <g id="ic-/-soc-/-mail" stroke="none" stroke-width="1" fill="none" fill-rule="evenodd">
        <g>
            <rect id="e" x="0" y="0" width="24" height="24"></rect>
            <path d="M14.5870571,11.9345539 C14.5033249,10.3199352 13.3105345,9.35078869 11.8746062,9.35078869 L11.8191779,9.35078869 C10.1570155,9.35078869 9.23664949,10.665043 9.23664949,12.1542218 C9.23664949,13.8227697 10.3506216,14.8779463 11.8092519,14.8779463 C13.4395725,14.8779463 14.5124647,13.6787608 14.5870571,12.2609939 L14.5870571,11.9345539 L14.5870571,11.9345539 Z M11.8272366,7.90516818 C12.9365897,7.90516818 13.9795074,8.40139648 14.7455782,9.17240726 L14.7455782,9.17764215 C14.7455782,8.80517461 14.995792,8.52515724 15.3375019,8.52515724 L15.4253617,8.52515724 C15.9612673,8.52515724 16.0750723,9.03699146 16.0750723,9.19966821 L16.0774309,14.9617046 C16.0387097,15.3382218 16.4647414,15.5310238 16.701786,15.2894286 C17.6215624,14.3364806 18.7193188,10.4030021 16.1289282,8.11960123 C13.7101296,5.99542011 10.4668836,6.34635545 8.74526346,7.54099744 C6.90924871,8.81218739 5.73326367,11.6243124 6.8774069,14.2667479 C8.11628935,17.1486056 11.6746121,18.0085108 13.7852134,17.1508774 C14.8546659,16.7164801 15.34959,18.1711876 14.2378782,18.6476616 C12.5602863,19.363459 7.88681207,19.2914546 5.70269946,15.491614 C4.22854137,12.925924 4.30765452,8.41077978 8.2186942,6.06920246 C11.212611,4.27738763 15.1576546,4.77707294 17.5337026,7.27243758 C20.0236539,9.88415511 19.8779088,14.7710755 17.4534101,16.6746009 C16.3537864,17.5366791 14.7171761,16.6954417 14.7327039,15.4381786 L14.7171761,15.0268938 C13.955233,15.7890151 12.9365897,16.2353638 11.8272366,16.2353638 C9.63555667,16.2353638 7.70352509,14.2946015 7.70352509,12.0950577 C7.70352509,9.86845043 9.63555667,7.90516818 11.8272366,7.90516818 L11.8272366,7.90516818 Z" id="Fill-1" fill="#837FFF"></path>
        </g>
    </g>
</svg>