<svg height="130" width="130" xmlns="http://www.w3.org/2000/svg" xmlns:xlink="http://www.w3.org/1999/xlink"><filter id="a"><feFlood flood-color="#d86c02" result="floodOut"/><feComposite in="floodOut" in2="SourceGraphic" operator="atop" result="compOut"/><feBlend in="compOut" in2="SourceGraphic"/></filter><linearGradient id="b" x1="0%" x2="0%" y1="100%" y2="0%"><stop offset="0" stop-color="#ffa200"/><stop offset="1" stop-color="#ffea00"/></linearGradient><g fill-rule="evenodd"><path d="m65 0c35.898 0 65 29.102 65 65s-29.102 65-65 65-65-29.102-65-65 29.102-65 65-65z" fill="#0b1d39" opacity=".702"/><path d="m50 43c5.523 0 40 11.193 40 25s-34.477 25-40 25-4-11.193-4-25-1.523-25 4-25z" filter="url(#a)"/><path d="m50 40c5.523 0 40 11.193 40 25s-34.477 25-40 25-4-11.193-4-25-1.523-25 4-25z"/></g><path d="m50 40c5.523 0 40 11.193 40 25s-34.477 25-40 25-4-11.193-4-25-1.523-25 4-25z" fill="url(#b)"/></svg>