<?xml version="1.0" encoding="UTF-8"?>
<svg width="20px" height="20px" viewBox="0 0 20 20" version="1.1" xmlns="http://www.w3.org/2000/svg" xmlns:xlink="http://www.w3.org/1999/xlink">
    <!-- Generator: Sketch 55.1 (78136) - https://sketchapp.com -->
    <title>ic / disabled</title>
    <desc>Created with Sketch.</desc>
    <defs>
        <circle id="path-1" cx="10" cy="10" r="10"></circle>
        <filter x="-17.5%" y="-12.5%" width="135.0%" height="135.0%" filterUnits="objectBoundingBox" id="filter-2">
            <feOffset dx="0" dy="1" in="SourceAlpha" result="shadowOffsetOuter1"></feOffset>
            <feGaussianBlur stdDeviation="1" in="shadowOffsetOuter1" result="shadowBlurOuter1"></feGaussianBlur>
            <feComposite in="shadowBlurOuter1" in2="SourceAlpha" operator="out" result="shadowBlurOuter1"></feComposite>
            <feColorMatrix values="0 0 0 0 0   0 0 0 0 0   0 0 0 0 0  0 0 0 0.321186626 0" type="matrix" in="shadowBlurOuter1"></feColorMatrix>
        </filter>
        <path d="M6.00072486,7.07692308 C6.00024234,7.05134009 6,7.02569835 6,7 C6,4.790861 7.790861,3 10,3 C12.209139,3 14,4.790861 14,7 C14,7.02569835 13.9997577,7.05134009 13.9992751,7.07692308 L14.2811307,7.07692308 C15.1307996,7.07692308 15.8195923,7.76571577 15.8195923,8.61538462 C15.8195923,8.67214639 15.8164509,8.72886467 15.8101826,8.78527927 L15.152063,14.7083562 C15.0654933,15.4874834 14.406933,16.0769231 13.6230111,16.0769231 L6.37698891,16.0769231 C5.59306704,16.0769231 4.9345067,15.4874834 4.84793701,14.7083562 L4.18981735,8.78527927 C4.09598713,7.94080723 4.70450255,7.18016294 5.5489746,7.08633272 C5.6053892,7.08006443 5.66210748,7.07692308 5.71886925,7.07692308 L6.00072486,7.07692308 Z M8.00145206,7.07692308 L11.9985479,7.07692308 C11.9995131,7.05140158 12,7.02575765 12,7 C12,5.8954305 11.1045695,5 10,5 C8.8954305,5 8,5.8954305 8,7 C8,7.02575765 8.00048692,7.05140158 8.00145206,7.07692308 Z" id="path-3"></path>
        <filter x="-30.1%" y="-19.1%" width="160.1%" height="153.5%" filterUnits="objectBoundingBox" id="filter-4">
            <feOffset dx="0" dy="1" in="SourceAlpha" result="shadowOffsetOuter1"></feOffset>
            <feGaussianBlur stdDeviation="1" in="shadowOffsetOuter1" result="shadowBlurOuter1"></feGaussianBlur>
            <feColorMatrix values="0 0 0 0 0   0 0 0 0 0   0 0 0 0 0  0 0 0 0.29963396 0" type="matrix" in="shadowBlurOuter1"></feColorMatrix>
        </filter>
        <filter x="-21.5%" y="-11.5%" width="143.0%" height="138.2%" filterUnits="objectBoundingBox" id="filter-5">
            <feGaussianBlur stdDeviation="0.5" in="SourceAlpha" result="shadowBlurInner1"></feGaussianBlur>
            <feOffset dx="0" dy="0" in="shadowBlurInner1" result="shadowOffsetInner1"></feOffset>
            <feComposite in="shadowOffsetInner1" in2="SourceAlpha" operator="arithmetic" k2="-1" k3="1" result="shadowInnerInner1"></feComposite>
            <feColorMatrix values="0 0 0 0 1   0 0 0 0 1   0 0 0 0 1  0 0 0 0.5 0" type="matrix" in="shadowInnerInner1"></feColorMatrix>
        </filter>
    </defs>
    <g id="ic-/-disabled" stroke="none" stroke-width="1" fill="none" fill-rule="evenodd">
        <g id="ic-/-done">
            <rect id="Rectangle" x="0" y="0" width="20" height="20"></rect>
            <g id="Oval">
                <use fill="black" fill-opacity="1" filter="url(#filter-2)" xlink:href="#path-1"></use>
                <use fill-opacity="0.2" fill="#FFFFFF" fill-rule="evenodd" xlink:href="#path-1"></use>
            </g>
            <g id="Combined-Shape">
                <use fill="black" fill-opacity="1" filter="url(#filter-4)" xlink:href="#path-3"></use>
                <use fill="#FFFFFF" fill-rule="evenodd" xlink:href="#path-3"></use>
                <use fill="black" fill-opacity="1" filter="url(#filter-5)" xlink:href="#path-3"></use>
            </g>
        </g>
    </g>
</svg>