<svg xmlns="http://www.w3.org/2000/svg" width="28" height="28" viewBox="0 0 28 28">
    <g fill="#FFF" fill-rule="nonzero">
        <path d="M19.6 19.6v-1.4h2.1a.7.7 0 0 0 .7-.7v-14a.7.7 0 0 0-.7-.7h-9.8a.7.7 0 0 0-.7.7v2.1H9.8V2.8a1.4 1.4 0 0 1 1.4-1.4h11.2a1.4 1.4 0 0 1 1.4 1.4v15.4a1.4 1.4 0 0 1-1.4 1.4h-2.8z"/>
        <path d="M4.2 8.4h11.2a1.4 1.4 0 0 1 1.4 1.4v15.4a1.4 1.4 0 0 1-1.4 1.4H4.2a1.4 1.4 0 0 1-1.4-1.4V9.8a1.4 1.4 0 0 1 1.4-1.4zm.7 1.4a.7.7 0 0 0-.7.7v14a.7.7 0 0 0 .7.7h9.8a.7.7 0 0 0 .7-.7v-14a.7.7 0 0 0-.7-.7H4.9z"/>
    </g>
</svg>
