<?xml version="1.0" encoding="UTF-8"?>
<svg width="52px" height="52px" viewBox="0 0 52 52" version="1.1" xmlns="http://www.w3.org/2000/svg" xmlns:xlink="http://www.w3.org/1999/xlink">
    <!-- Generator: Sketch 55.1 (78136) - https://sketchapp.com -->
    <title>logo_GC</title>
    <desc>Created with Sketch.</desc>
    <defs>
        <linearGradient x1="66.6744982%" y1="92.7473616%" x2="101.768493%" y2="14.305536%" id="linearGradient-1">
            <stop stop-color="#4B318F" offset="0%"></stop>
            <stop stop-color="#AA8DF8" offset="30.13947%"></stop>
            <stop stop-color="#56FF7E" offset="48.8377499%"></stop>
            <stop stop-color="#63FF76" offset="58.8547962%"></stop>
            <stop stop-color="#9AFF56" offset="100%"></stop>
        </linearGradient>
    </defs>
    <g id="Landing-GC-/-User-migration" stroke="none" stroke-width="1" fill="none" fill-rule="evenodd">
        <g id="lp_GC_user-migration-IT3-Success" transform="translate(-150.000000, -94.000000)" fill-rule="nonzero">
            <g id="menu" transform="translate(0.000000, 60.000000)">
                <g id="logo_GC" transform="translate(150.000000, 34.000000)">
                    <circle id="Oval" fill="#262536" cx="26" cy="26" r="26"></circle>
                    <g id="xp-icon">
                        <g id="Page-1" transform="translate(12.683362, 17.589022)" fill="#FFFFFF">
                            <g id="Desktop_1920_Login_UserGames" transform="translate(0.000000, 0.000000)">
                                <g id="personal-tabs">
                                    <g id="support" transform="translate(0.000000, 0.000000)">
                                        <g id="xp-icon" transform="translate(0.472727, 0.472727)">
                                            <path d="M19.7501887,0 L23.3116981,0 C26.3875472,0 28.8158491,2.56878216 28.8158491,5.61921098 C28.8158491,8.66963979 26.3875472,11.238422 23.3116981,11.238422 L20.5596226,11.238422 L20.5596226,16.3759863 C20.5596226,16.697084 20.3977358,16.8576329 20.0739623,16.8576329 L17.8075472,16.8576329 L17.8075472,0 L19.7501887,0 Z M20.7215094,2.56878216 L20.7215094,8.18799314 L23.3116981,8.18799314 C24.930566,8.18799314 26.0637736,6.90360206 26.0637736,5.45866209 C26.0637736,4.01372213 24.7686792,2.72933105 23.3116981,2.72933105 L20.7215094,2.72933105 L20.7215094,2.56878216 Z" id="Combined-Shape"></path>
                                            <path d="M8.74188679,8.34854202 L14.2460377,0 L11.4939623,0 C11.1701887,0 10.8464151,0.160548885 10.8464151,0.32109777 L7.12301887,5.94030875 L3.39962264,0.32109777 C3.39962264,0.160548885 3.07584906,0 2.75207547,0 L0,0 L5.50415094,8.34854202 L0,16.8576329 L2.75207547,16.8576329 C3.07584906,16.8576329 3.39962264,16.697084 3.39962264,16.5365352 L7.12301887,10.9173242 L10.8464151,16.5365352 C11.0083019,16.697084 11.3320755,16.8576329 11.4939623,16.8576329 L14.2460377,16.8576329 L8.74188679,8.34854202 Z" id="Combined-Shape_1_"></path>
                                        </g>
                                    </g>
                                </g>
                            </g>
                        </g>
                        <path d="M42.6758621,41.062069 C38.5517241,45.5448276 32.6344828,48.4137931 26,48.4137931 C13.6275862,48.4137931 3.5862069,38.3724138 3.5862069,26 C3.5862069,13.6275862 13.6275862,3.5862069 26,3.5862069 C38.3724138,3.5862069 48.4137931,13.6275862 48.4137931,26 C48.4137931,28.5103448 47.8758621,31.0206897 47.1586207,33.3517241 C48.4137931,33.3517241 49.6689655,33.8896552 50.3862069,34.7862069 C51.462069,32.0965517 52,29.0482759 52,26 C52,11.6551724 40.3448276,0 26,0 C11.6551724,0 0,11.6551724 0,26 C0,40.3448276 11.6551724,52 26,52 C33.7103448,52 40.7034483,48.5931034 45.3655172,43.2137931 C44.2896552,42.8551724 43.2137931,41.9586207 42.6758621,41.062069 Z" id="Shape" fill="url(#linearGradient-1)"></path>
                        <circle id="Oval" fill="#FFFFFF" cx="47.0943396" cy="38.2641509" r="1.96226415"></circle>
                    </g>
                </g>
            </g>
        </g>
    </g>
</svg>